<?xml version="1.0" encoding="UTF-8" standalone="no"?>
<!-- Created with Inkscape (http://www.inkscape.org/) -->

<svg
   xmlns:dc="http://purl.org/dc/elements/1.1/"
   xmlns:cc="http://creativecommons.org/ns#"
   xmlns:rdf="http://www.w3.org/1999/02/22-rdf-syntax-ns#"
   xmlns:svg="http://www.w3.org/2000/svg"
   xmlns="http://www.w3.org/2000/svg"
   xmlns:sodipodi="http://sodipodi.sourceforge.net/DTD/sodipodi-0.dtd"
   xmlns:inkscape="http://www.inkscape.org/namespaces/inkscape"
   width="41.201618mm"
   height="10.257771mm"
   viewBox="0 0 41.201618 10.257771"
   version="1.1"
   id="svg8"
   inkscape:version="0.92.1 r15371"
   sodipodi:docname="logo.svg">
  <defs
     id="defs2" />
  <sodipodi:namedview
     id="base"
     pagecolor="#ffffff"
     bordercolor="#666666"
     borderopacity="1.0"
     inkscape:pageopacity="0.0"
     inkscape:pageshadow="2"
     inkscape:zoom="1.979899"
     inkscape:cx="66.79585"
     inkscape:cy="-33.053422"
     inkscape:document-units="mm"
     inkscape:current-layer="flowRoot4485"
     showgrid="false"
     fit-margin-top="0"
     fit-margin-left="0"
     fit-margin-right="0"
     fit-margin-bottom="0"
     inkscape:window-width="1366"
     inkscape:window-height="705"
     inkscape:window-x="-8"
     inkscape:window-y="-8"
     inkscape:window-maximized="1" />
  <metadata
     id="metadata5">
    <rdf:RDF>
      <cc:Work
         rdf:about="">
        <dc:format>image/svg+xml</dc:format>
        <dc:type
           rdf:resource="http://purl.org/dc/dcmitype/StillImage" />
        <dc:title></dc:title>
      </cc:Work>
    </rdf:RDF>
  </metadata>
  <g
     inkscape:label="Livello 1"
     inkscape:groupmode="layer"
     id="layer1"
     transform="translate(-49.631595,-89.722254)">
    <g
       aria-label="Sweet Logo"
       transform="scale(0.26458333)"
       style="font-style:normal;font-variant:normal;font-weight:normal;font-stretch:normal;font-size:40px;line-height:1.25;font-family:'Blackadder ITC';-inkscape-font-specification:'Blackadder ITC';letter-spacing:0px;word-spacing:0px;fill:#000000;fill-opacity:1;stroke:none"
       id="flowRoot4485">
      <path
         d="m 200.86523,360.82649 0.15625,-0.39063 0.50782,-0.5664 q 0.39062,-0.64454 0.64453,-0.76172 0.0391,-0.15625 0.11719,-0.29297 0.0781,-0.13672 0.11718,-0.42969 l 0.17578,-0.3125 q 0.0781,-0.0781 0.0781,-0.11719 0,-0.0391 -0.15625,-0.23437 l -0.0977,-0.41016 q 0,-0.15625 -1.03515,-1.03515 h -0.15625 l -1.40625,-0.6836 -0.0781,-0.19531 -0.15625,-0.0391 -0.19531,0.0781 h -0.0391 l -0.66407,-0.19531 q -0.80078,-0.21484 -1.05468,-0.33203 -0.0391,0.0391 -0.11719,0.0391 l -0.78125,-0.17578 q -0.33203,-0.0781 -0.41016,-0.15625 -0.0586,-0.0977 -0.33203,-0.17578 -0.2539,-0.0977 -0.33203,-0.17578 -0.0781,-0.0781 -0.3125,-0.0781 l -0.48828,0.11719 q 0,-0.0586 -0.54688,-0.19531 -0.0781,-0.19532 -0.11718,-0.19532 l -0.56641,0.0781 q -0.56641,-0.27344 -0.58594,-0.27344 -0.0976,0 -0.68359,-0.0976 -0.58594,-0.11719 -0.76172,-0.23438 -0.17578,-0.11719 -0.52734,-0.23437 l -0.11719,-0.11719 q -0.0391,-0.0391 -0.21484,-0.0781 h -0.35157 q -0.11718,0 -0.33203,-0.19531 -0.19531,-0.19531 -0.52734,-0.39062 -0.3125,-0.19532 -0.56641,-0.60547 -0.23437,-0.42969 -0.2539,-0.85938 -0.0391,-0.0391 -0.0391,-0.0781 l 0.11719,-0.625 q 0.17578,-1.19141 1.11328,-2.20703 0.15625,-0.52735 0.64453,-0.76172 l 0.0781,-0.27344 q 0.5664,-0.48828 0.80078,-0.78125 0.25391,-0.29297 0.56641,-0.46875 0.3125,-0.19531 0.48828,-0.35156 l 0.35156,-0.15625 q -0.0195,-0.17578 0.85937,-0.82032 0.89844,-0.66406 1.38672,-0.85937 0.50782,-0.21484 0.66407,-0.3125 0.17578,-0.0977 0.97656,-0.29297 0.19531,-0.52734 0.625,-0.52734 h 0.29297 l 0.39062,-0.39063 0.52735,0.0391 q 0.0391,-0.0391 0.21484,-0.23437 0.17578,-0.21484 0.58594,-0.21484 l 2.36328,-0.72266 h 0.15625 l 0.15625,0.0391 q 0.15625,0 0.39062,-0.27344 0.25391,-0.27343 0.64453,-0.27343 0.0781,0 0.29297,0.15625 0,0.0391 0.0391,0.0391 l 0.50781,-0.15625 0.60547,0.0391 0.76172,-0.19531 q 0.72265,0 1.26953,0.35156 l 0.0391,-0.0781 v -0.11719 q 0,-0.33203 0.37109,-0.33203 0.15625,0 0.19532,0.0781 l 0.23437,0.13672 h 0.13672 q 0.0391,0 0.50781,0.23438 0.29297,-0.19532 0.3711,-0.19532 0.37109,0 0.58593,0.3125 l 0.33203,-0.0391 q 0.15625,-0.15625 0.19532,-0.15625 0.11718,0 0.3125,0.3125 l 0.11718,0.0391 h 0.48829 q 0.0391,0 0.15625,0.11719 l 0.21484,0.17578 q 0.15625,0.15625 0.21484,0.25391 0.0586,0.0977 0.13672,0.17578 0.50781,-0.21484 0.54688,-0.21484 0.19531,0 0.29297,0.33203 0,0.27344 0.33203,0.54687 0.35156,0.25391 0.35156,0.54688 0.42969,0.19531 0.42969,0.625 l 0.37109,0.95703 -0.0781,0.33203 q 0.15625,0.3125 0.15625,0.35156 l -0.0781,0.72266 0.0781,0.76172 q 0,0.60547 -0.56641,1.03515 -0.11719,0 -0.39063,0.17579 -0.2539,0.15625 -0.29296,0.15625 -0.50782,0 -0.6836,-0.23438 -0.15625,-0.25391 -0.3125,-0.37109 -0.15625,-0.11719 -0.15625,-0.3125 0,-0.44922 0.60547,-0.87891 0.27344,0 0.39063,-0.17578 0,-0.41016 -0.17579,-0.56641 -0.17578,-0.15625 -0.39062,-0.42968 -0.19531,-0.27344 -0.42969,-0.42969 -0.23437,-0.17578 -0.39062,-0.42969 -0.13672,-0.25391 -0.25391,-0.25391 l -0.27344,0.0391 -0.5664,-0.11719 q -0.89844,-0.11719 -1.64063,-0.41016 h -0.39062 l -1.05469,-0.15625 q -0.27344,0.11719 -0.78125,0.11719 l -1.28906,0.19531 -0.52735,-0.0391 q -0.0586,0 -1.07422,0.33203 l -0.19531,0.0391 h -0.52734 q -0.0391,0 -0.50781,0.19532 -0.44922,0.19531 -0.76172,0.27343 l -0.17578,0.0781 q -0.0391,0.0391 -0.11719,0.0391 l -0.3125,-0.0391 -1.71875,0.83984 -0.27344,-0.15625 q -0.33203,-0.15625 -0.37109,-0.15625 -0.27344,0 -0.27344,0.27344 l -0.0391,0.37109 q -0.25391,0.15625 -0.33203,0.23438 -0.0781,0.0781 -0.19532,0.11719 h -0.23437 q -0.23438,0 -0.44922,0.21484 -0.19531,0.19531 -0.35156,0.21484 -0.15625,0.0195 -0.44922,0.17579 -0.0391,0.0781 -0.3125,0.15625 -0.27344,0.0781 -0.42969,0.37109 -0.13672,0.27344 -0.33203,0.27344 l -0.39063,-0.0781 -0.21484,0.39063 q -0.41016,0.0977 -0.46875,0.11718 -0.25391,0.33204 -0.50781,0.50782 -0.25391,0.17578 -0.50781,0.39062 -0.23438,0.19531 -0.35157,0.41016 -0.0976,0.21484 -0.3125,0.35156 -0.21484,0.11719 -0.37109,0.50781 l -0.19531,0.19532 q -0.48828,0.41015 -0.48828,0.8789 0,0.33203 0.46875,0.48828 0.46875,0.15625 0.58593,0.25391 0.11719,0.0977 0.35157,0.0977 0.23437,0 0.44921,0.0976 0.21485,0.0977 0.72266,0.3125 0.0977,0.3125 0.19531,0.3125 0.0391,0 0.15625,-0.15625 0.11719,-0.15625 0.35157,-0.15625 0.2539,0 0.48828,0.3125 l 0.15625,-0.11719 h 0.0781 l 0.25391,0.0781 h 0.0391 l 0.23438,-0.11719 q 0.0391,-0.0391 0.11718,-0.0391 0.0586,0 0.60547,0.19531 h 0.0391 q 0.0391,0 0.3125,-0.0781 0.29297,0.0781 0.33204,0.11718 l 0.27343,0.15625 q 0,0.0586 0.0781,0.0586 0.0781,0 0.23437,-0.0781 0.15625,-0.0977 0.29297,-0.0977 0.15625,0 0.35156,0.21484 0.3125,-0.13672 0.35157,-0.13672 0.17578,0 0.60547,0.29297 l 0.37109,0.0781 h 0.42969 l 0.64453,0.11718 q 0.27344,0.29297 0.5664,0.44922 0.0391,-0.21484 0.27344,-0.21484 0.3125,0 0.95703,0.2539 l 0.15625,0.0391 0.15625,0.11718 q 0.33203,-0.0781 0.41016,-0.0781 0.39062,0 0.39062,0.27344 0,0.23437 -0.11718,0.60547 0.0391,0 0.11718,0.0781 0.0977,-0.11719 0.21485,-0.15625 l 0.3125,-0.17578 q 0.0781,-0.0781 0.11719,-0.0781 0.44921,0 1.26953,0.625 0.82031,0.625 0.9375,1.42579 0,0.23437 0.15625,0.54687 l -0.0781,0.25391 0.0391,0.3125 q 0,0.0391 -0.0781,0.27343 l -0.0391,0.29297 q -0.0391,0.0781 -0.11719,0.13672 -0.0781,0.0586 -0.11719,0.13672 l 0.11719,0.33203 v 0.0781 q 0,0.0781 -0.15625,0.21484 -0.13672,0.13672 -0.17578,0.25391 -0.0391,0.11718 -0.13672,0.2539 -0.0977,0.11719 -0.13672,0.29297 -0.0391,0.17578 -0.39062,0.41016 -0.33204,0.21484 -0.33204,0.33203 0,0.11719 0.0781,0.11719 0.23437,0 0.48828,-0.21485 0.27344,-0.23437 0.41016,-0.27343 0.13672,-0.0391 0.46875,-0.23438 l 1.83593,-0.85937 q 2.05079,-0.97657 2.28516,-0.97657 0.3125,0 0.3125,0.3125 0,0.11719 -0.27344,0.44922 -0.0391,0.91797 -0.80078,1.07422 -0.29297,0.19531 -0.44922,0.41016 h -0.15625 q -0.48828,0.54687 -1.11328,0.54687 h -0.11719 q -0.72265,0.72266 -1.75781,0.80078 -0.68359,0.6836 -1.13281,0.6836 l -0.3125,0.0781 q -0.48828,0.19531 -0.68359,0.19531 -0.0391,0 -0.15625,0.15625 l -0.29297,0.21485 q -0.3711,0.0781 -0.80078,0.42969 -0.42969,0.35156 -0.66407,0.41015 -0.21484,0.0391 -0.46875,0.15625 -0.2539,0.11719 -2.05078,1.32813 l -0.2539,0.0781 q -0.76172,0.35156 -0.95704,0.58594 -0.19531,0.21484 -0.46875,0.37109 h -0.0781 q -0.44922,0 -1.05469,0.58594 -0.0391,0.0977 -0.85937,0.33203 -0.80078,0.21485 -1.54297,0.6836 -0.46875,0.11718 -1.15235,0.3125 -0.68359,0.19531 -0.99609,0.23437 l -1.36719,0.29297 q -0.44922,0.0781 -1.03515,0.23437 -0.35157,-0.11718 -0.60547,-0.11718 l -0.35156,0.0391 q -0.0781,0 -0.25391,-0.13672 -0.15625,-0.13672 -0.42969,-0.27344 -0.27344,-0.11718 -0.27344,-0.66406 0,-0.48828 1.07422,-0.95703 1.07422,-0.48828 1.40625,-0.68359 0.15625,-0.21485 0.52735,-0.25391 0.39062,-0.0391 0.66406,-0.23438 0.27344,-0.19531 0.83984,-0.35156 l 0.78125,-0.41015 q 0.0586,-0.0391 0.0977,-0.0391 h 0.27344 q 0.13672,0 0.41015,-0.21484 0.27344,-0.21484 0.56641,-0.3125 h 0.23437 q 0.0391,0 0.11719,-0.0977 0.0781,-0.0977 0.35156,-0.2539 l 0.0586,-0.0391 h 0.19531 q 0.21484,-0.17578 0.50781,-0.29296 0.29297,-0.11719 0.56641,-0.3125 l 1.52344,-0.58594 0.35156,0.0391 q 0.11719,0 0.29297,-0.17578 0.19531,-0.19531 0.8789,-0.39063 0.0977,-0.15625 0.41016,-0.37109 0.3125,-0.21484 0.74219,-0.625 z m -6.8164,4.88281 -0.27344,-0.0391 q -0.27344,0.15625 -0.54687,0.17578 -0.25391,0.0195 -0.82032,0.37109 -0.54687,0.33203 -1.26953,0.64453 -0.72265,0.3125 -0.72265,0.41016 0.95703,-0.11719 1.99218,-0.52734 l 1.40625,-0.39063 q 0.27344,-0.0781 0.3711,-0.15625 0.11718,-0.0781 0.42968,-0.21484 l 0.3125,-0.23438 q 0.0977,-0.0391 0.42969,-0.15625 0.33203,-0.11719 0.33203,-0.23437 0,-0.0781 -0.0781,-0.0781 -0.70313,0 -1.11328,0.21485 -0.41016,0.21484 -0.44922,0.21484 z"
         style="font-style:normal;font-variant:normal;font-weight:normal;font-stretch:normal;font-family:'Rage Italic';-inkscape-font-specification:'Rage Italic, ';fill:#ffffff;fill-opacity:1"
         id="path4517" />
      <path
         d="m 210.8457,357.03742 0.33203,-0.0781 q 0.15625,-0.17578 0.33204,-0.39063 0.17578,-0.21484 0.50781,-0.37109 0.35156,-0.15625 0.54687,-0.60547 0.83985,-0.83984 1.40625,-0.95703 0.82032,0.35156 0.95703,0.78125 0.15625,0.41016 0.15625,1.36719 0,0.2539 -0.19531,0.64453 -0.19531,0.37109 -0.27344,0.58594 -0.0781,0.21484 -0.37109,0.66406 0,0.0391 -0.0977,0.13672 -0.0976,0.0976 -0.23437,0.41015 -0.13672,0.29297 -0.37109,0.52735 -0.21485,0.23437 -0.33204,0.54687 -0.11718,0.29297 -0.52734,0.97657 -0.42969,1.17187 -0.42969,1.34765 0,0.21485 0.11719,0.21485 0.0781,0 0.27344,-0.11719 l 0.17578,-0.0586 h 0.23437 l 0.27344,-0.19531 q 0.0391,-0.0976 0.0781,-0.27344 0.0391,-0.0391 0.52734,-0.23437 l 0.0391,-0.0391 q -0.0391,-0.0977 -0.0391,-0.21485 0,-0.19531 0.37109,-0.2539 0.39063,-0.0586 0.58594,-0.25391 0,-0.25391 0.0977,-0.29297 0.0976,-0.0391 0.21484,-0.27344 0.13672,-0.23437 0.42969,-0.27343 0.29297,-0.0391 0.29297,-0.23438 0,-0.64453 0.72265,-1.01562 0.15625,-0.0391 0.15625,-0.19532 0,-0.37109 0.0586,-0.41015 0.0586,-0.0586 0.35156,-0.23438 l 0.39063,-0.50781 0.17578,-0.41016 q 0.0781,-0.15625 0.19531,-0.2539 0.11719,-0.0977 0.29297,-0.42969 0.17578,-0.35156 0.29297,-0.46875 l 0.21484,-0.33203 q 0.27344,-0.50781 0.68359,-0.50781 0.21485,0 0.9375,0.625 0.74219,0.60547 0.74219,1.8164 0,0.46875 -0.2539,0.56641 -0.23438,0.0977 -0.35157,0.66406 -0.11718,0.56641 -0.39062,1.05469 -0.25391,0.46875 -0.25391,0.50781 l 0.0781,0.23438 v 0.0781 q 0,0.44922 -0.23438,0.72266 0.0391,0.0195 0.11719,0.33203 l -0.19531,0.3125 q 0.0781,0.76172 0.27343,0.76172 0.11719,0 0.29297,-0.0781 0.19532,-0.0781 0.3711,-0.0977 0.17578,-0.0195 0.58593,-0.27344 l 1.26954,-0.80078 0.23437,-0.27344 0.17578,-0.11719 q 0.3125,-0.15625 0.42969,-0.42968 0.11719,-0.29297 0.37109,-0.33204 0.0781,-0.44921 0.46875,-0.83984 l 0.56641,-1.07422 q 0.21484,-0.42969 0.27344,-0.48828 0,-0.66406 -0.50782,-1.875 v -0.11719 q 0,-0.39062 0.25391,-0.76172 0.25391,-0.37109 0.48828,-0.37109 l 0.41016,0.0391 0.52734,-0.11718 q 0.15625,0 0.83985,0.58593 0.70312,0.56641 0.70312,1.42578 0,0.54688 -0.19531,0.95704 -0.19531,0.39062 -0.25391,0.76171 -0.0586,0.35157 -0.39062,0.54688 l -0.0781,0.0977 q -0.0586,0.91796 -0.76172,1.38671 -0.19531,0.29297 -0.41015,0.72266 -0.21485,0.41016 -0.39063,0.48828 -0.0391,0 -0.3125,0.44922 -0.2539,0.42969 -0.39062,0.52734 -0.13672,0.0781 -0.54688,0.25391 -0.39062,0.15625 -0.39062,0.41016 l -0.0391,0.27343 q -0.68359,0.48829 -0.8789,0.72266 -0.25391,0.0391 -0.39063,0.0781 -0.80078,0.80078 -2.22656,0.80078 -0.68359,0 -1.46484,-0.66407 -0.78125,-0.68359 -0.78125,-1.38671 l -0.17578,-0.625 q 0,-1.5625 0.11718,-2.16797 0.0586,-0.0781 0.0586,-0.15625 0,-0.23438 -0.13672,-0.23438 -0.0977,0.0977 -0.21485,0.33203 -0.0976,0.21485 -0.2539,0.29297 l -0.29297,0.25391 q -0.0977,0.46875 -0.21484,0.52734 -0.0977,0.0586 -0.33204,0.3125 -0.23437,0.23438 -0.52734,0.42969 0.0195,0.11719 -0.80078,1.17187 v 0.11719 q 0,0.0195 -0.19531,0.11719 l -0.3125,0.3125 q -0.29297,0.29297 -1.50391,1.03516 -1.19141,0.72265 -1.38672,0.72265 -0.52734,0 -0.91797,-0.37109 -0.37109,-0.3711 -0.42968,-0.80078 -0.0586,-0.42969 -0.17579,-0.78125 -0.11718,-0.35157 -0.11718,-0.52735 0,-0.0781 0.0781,-0.39062 0.0781,-0.3125 0.0977,-0.56641 0.0195,-0.27344 0.0586,-0.3125 v -0.37109 q 0,-0.0391 0.21485,-0.3125 0.23437,-0.27344 0.23437,-0.56641 0,-0.11719 0.17578,-0.37109 0.17578,-0.25391 0.23438,-0.42969 0.0781,-0.19531 0.3125,-0.42969 0.0391,-0.19531 0.17578,-0.54687 0.13672,-0.3711 0.13672,-0.44922 0,-0.0391 -0.0391,-0.0781 -0.27343,0 -0.80078,0.50782 l -0.35156,0.19531 q -0.25391,0.13672 -0.87891,0.64453 -0.29296,0.37109 -0.52734,0.37109 -0.91797,0 -0.91797,-0.83984 0,-0.41016 0.21485,-0.56641 0.23437,-0.15625 0.27343,-0.29296 0.0391,-0.15625 0.46875,-0.23438 0.44922,-0.0977 0.95703,-0.91797 0.44922,0 0.52735,-0.13672 0.0781,-0.13672 0.23437,-0.29297 z"
         style="font-style:normal;font-variant:normal;font-weight:normal;font-stretch:normal;font-family:'Rage Italic';-inkscape-font-specification:'Rage Italic, ';fill:#ffffff;fill-opacity:1"
         id="path4519" />
      <path
         d="m 232.25195,357.76008 0.41016,-0.33203 q 0.46875,-0.0391 0.50781,-0.48828 0.0391,-0.44922 0.64453,-0.78125 l 0.23438,-0.33203 q 0.29297,-0.29297 1.60156,-0.76172 0.33203,-0.19531 0.44922,-0.35156 0.0391,-0.0391 0.0781,-0.0391 l 0.3125,0.0781 q 0.25391,0 0.64454,-0.13672 0.41015,-0.13672 0.78125,-0.13672 l 0.82031,-0.0391 q 0.0781,0 0.3125,0.11719 0.2539,0.11718 0.60547,0.11718 0.42968,0 0.78125,0.39063 0.37109,0.39062 0.37109,0.72265 0,0.60547 -0.625,1.23047 -0.625,0.625 -0.99609,0.70313 -0.33203,0.33203 -0.50782,0.42969 -0.17578,0.0781 -0.37109,0.27343 -0.17578,0.17578 -0.29297,0.17578 -0.0781,0 -0.11719,-0.0391 -0.0391,-0.0586 -0.11718,-0.0586 -0.3125,0 -0.6836,0.76172 l -0.35156,-0.0391 q -0.33203,0.21485 -0.42969,0.46875 -0.0976,0.25391 -0.41015,0.25391 -0.72266,0.72266 -0.97657,0.72266 -0.0391,0 -0.27343,-0.0781 -0.15625,0.19531 -0.15625,0.41016 0,0.23437 -0.3125,0.27344 l -0.25391,0.23437 -0.19531,-0.0391 -0.39063,0.41015 q -0.29297,0 -0.60547,0.19532 -0.0391,0.23437 -0.11718,0.60547 -0.0781,0.35156 -0.0781,0.39062 0,0.56641 1.03516,0.56641 l 0.9375,-0.13672 q 0.37109,0 0.68359,-0.19531 0.33203,-0.19532 0.70313,-0.19532 0.11718,0 0.35156,-0.0781 l 0.19531,0.0781 q 0.13672,-0.29297 0.50781,-0.52734 0.3711,-0.23438 0.58594,-0.23438 l 0.19531,-0.11718 q 0.0781,-0.23438 0.23438,-0.3125 l 0.15625,-0.13672 q 0.15625,-0.15625 0.29297,-0.15625 h 0.27344 l 0.0781,-0.0391 q 0.23438,-0.50782 0.64453,-0.58594 0.42969,-0.0977 0.52735,-0.29297 0.11718,-0.19531 0.39062,-0.23438 0.27344,-0.0391 0.44922,-0.2539 0.19531,-0.23438 0.46875,-0.42969 0.27344,-0.19531 0.37109,-0.29297 0.11719,-0.0976 0.19532,-0.0976 0.11718,0 0.11718,0.17578 0,0.17578 0.0781,0.17578 0.0781,0 0.0781,-0.0781 0,-0.0781 -0.0391,-0.19531 v -0.13672 q 0,-0.29297 0.3125,-0.39062 l 0.87891,-0.56641 q 0.0391,-0.41016 0.21484,-0.46875 0.19531,-0.0781 0.29297,-0.15625 0.0977,-0.0977 0.21484,-0.0977 0.25391,0 0.25391,0.29297 l -0.0977,0.50782 0.0977,0.52734 q 0,0.11719 -0.19531,0.33203 -0.17578,0.19531 -0.27344,0.625 -0.0977,0.41016 -0.25391,0.44922 h -0.11718 q -0.35157,0.37109 -0.56641,0.44922 -0.19531,0.0586 -0.3125,0.23437 l -0.66406,0.76172 q -0.19532,0.19531 -0.33203,0.35156 -0.13672,0.15625 -0.21485,0.15625 l -0.15625,-0.15625 q 0,-0.0391 -0.0781,-0.0391 -0.19532,0 -0.25391,0.23438 -0.0391,0.23437 -0.19531,0.41015 -0.58594,0.27344 -0.76172,0.50782 l -0.11719,0.0391 h -0.35156 q -0.25391,0 -0.35156,0.39062 -0.0977,0.3711 -0.56641,0.42969 -0.44922,0.0586 -0.64453,0.23438 -0.0391,0.0391 -0.17578,0.0781 -0.13672,0.0391 -0.54688,0.3125 l -1.64062,0.58594 q -0.19531,0.0976 -0.25391,0.0976 l -0.54687,0.0781 q -0.11719,0 -0.23438,-0.15625 -0.11719,-0.15625 -0.15625,-0.15625 l -0.35156,0.11719 q -0.39063,0.11718 -0.74219,0.11718 -0.19531,0 -0.42969,-0.13671 -0.23437,-0.13672 -0.37109,-0.19532 -0.56641,0 -0.80078,-0.8789 l -0.23438,0.0391 q -0.0781,0 -0.52734,-1.38672 -0.11719,-0.15625 -0.37109,-0.21484 -0.25391,-0.0781 -0.25391,-0.39063 0,-0.8789 0.37109,-1.17187 0.39063,-0.3125 0.42969,-0.46875 l 0.27344,-1.01563 q 0.0781,-0.0586 0.19531,-0.39062 l 0.44922,-0.82032 q 0.0781,-0.13671 0.35156,-0.68359 z m 4.1211,-1.17187 -0.23438,0.11718 q -0.0781,0.0391 -0.46875,0.35157 -0.37109,0.29296 -0.74219,0.48828 -0.35156,0.17578 -0.74218,0.95703 -0.3711,0.78125 -0.3711,0.89844 0,0.11718 0.11719,0.11718 l 0.66406,-0.29297 q 0.3711,-0.17578 0.6836,-0.44921 0.33203,-0.27344 0.9375,-0.66407 l 0.15625,-0.15625 q 0.0391,-0.0781 0.35156,-0.27343 0.33203,-0.21485 0.48828,-0.41016 l 0.19531,-0.0781 q 0.33203,-0.52734 0.66407,-0.64453 0.35156,-0.11718 0.35156,-0.23437 0,-0.23438 -0.3711,-0.23438 -0.15625,0 -0.46875,0.19532 h -0.44921 q -0.0781,0 -0.42969,0.23437 z"
         style="font-style:normal;font-variant:normal;font-weight:normal;font-stretch:normal;font-family:'Rage Italic';-inkscape-font-specification:'Rage Italic, ';fill:#ffffff;fill-opacity:1"
         id="path4521" />
      <path
         d="m 245.2207,357.76008 0.41016,-0.33203 q 0.46875,-0.0391 0.50781,-0.48828 0.0391,-0.44922 0.64453,-0.78125 l 0.23438,-0.33203 q 0.29297,-0.29297 1.60156,-0.76172 0.33203,-0.19531 0.44922,-0.35156 0.0391,-0.0391 0.0781,-0.0391 l 0.3125,0.0781 q 0.25391,0 0.64454,-0.13672 0.41015,-0.13672 0.78125,-0.13672 l 0.82031,-0.0391 q 0.0781,0 0.3125,0.11719 0.2539,0.11718 0.60547,0.11718 0.42968,0 0.78125,0.39063 0.37109,0.39062 0.37109,0.72265 0,0.60547 -0.625,1.23047 -0.625,0.625 -0.99609,0.70313 -0.33203,0.33203 -0.50782,0.42969 -0.17578,0.0781 -0.37109,0.27343 -0.17578,0.17578 -0.29297,0.17578 -0.0781,0 -0.11719,-0.0391 -0.0391,-0.0586 -0.11718,-0.0586 -0.3125,0 -0.6836,0.76172 l -0.35156,-0.0391 q -0.33203,0.21485 -0.42969,0.46875 -0.0976,0.25391 -0.41015,0.25391 -0.72266,0.72266 -0.97657,0.72266 -0.0391,0 -0.27343,-0.0781 -0.15625,0.19531 -0.15625,0.41016 0,0.23437 -0.3125,0.27344 l -0.25391,0.23437 -0.19531,-0.0391 -0.39063,0.41015 q -0.29297,0 -0.60547,0.19532 -0.0391,0.23437 -0.11718,0.60547 -0.0781,0.35156 -0.0781,0.39062 0,0.56641 1.03516,0.56641 l 0.9375,-0.13672 q 0.37109,0 0.68359,-0.19531 0.33203,-0.19532 0.70313,-0.19532 0.11718,0 0.35156,-0.0781 l 0.19531,0.0781 q 0.13672,-0.29297 0.50781,-0.52734 0.3711,-0.23438 0.58594,-0.23438 l 0.19531,-0.11718 q 0.0781,-0.23438 0.23438,-0.3125 l 0.15625,-0.13672 q 0.15625,-0.15625 0.29297,-0.15625 h 0.27344 l 0.0781,-0.0391 q 0.23438,-0.50782 0.64453,-0.58594 0.42969,-0.0977 0.52735,-0.29297 0.11718,-0.19531 0.39062,-0.23438 0.27344,-0.0391 0.44922,-0.2539 0.19531,-0.23438 0.46875,-0.42969 0.27344,-0.19531 0.37109,-0.29297 0.11719,-0.0976 0.19532,-0.0976 0.11718,0 0.11718,0.17578 0,0.17578 0.0781,0.17578 0.0781,0 0.0781,-0.0781 0,-0.0781 -0.0391,-0.19531 v -0.13672 q 0,-0.29297 0.3125,-0.39062 l 0.87891,-0.56641 q 0.0391,-0.41016 0.21484,-0.46875 0.19531,-0.0781 0.29297,-0.15625 0.0977,-0.0977 0.21484,-0.0977 0.25391,0 0.25391,0.29297 l -0.0977,0.50782 0.0977,0.52734 q 0,0.11719 -0.19531,0.33203 -0.17578,0.19531 -0.27344,0.625 -0.0977,0.41016 -0.25391,0.44922 h -0.11718 q -0.35157,0.37109 -0.56641,0.44922 -0.19531,0.0586 -0.3125,0.23437 l -0.66406,0.76172 q -0.19532,0.19531 -0.33203,0.35156 -0.13672,0.15625 -0.21485,0.15625 l -0.15625,-0.15625 q 0,-0.0391 -0.0781,-0.0391 -0.19532,0 -0.25391,0.23438 -0.0391,0.23437 -0.19531,0.41015 -0.58594,0.27344 -0.76172,0.50782 l -0.11719,0.0391 h -0.35156 q -0.25391,0 -0.35156,0.39062 -0.0977,0.3711 -0.56641,0.42969 -0.44922,0.0586 -0.64453,0.23438 -0.0391,0.0391 -0.17578,0.0781 -0.13672,0.0391 -0.54688,0.3125 l -1.64062,0.58594 q -0.19531,0.0976 -0.25391,0.0976 l -0.54687,0.0781 q -0.11719,0 -0.23438,-0.15625 -0.11719,-0.15625 -0.15625,-0.15625 l -0.35156,0.11719 q -0.39063,0.11718 -0.74219,0.11718 -0.19531,0 -0.42969,-0.13671 -0.23437,-0.13672 -0.37109,-0.19532 -0.56641,0 -0.80078,-0.8789 l -0.23438,0.0391 q -0.0781,0 -0.52734,-1.38672 -0.11719,-0.15625 -0.37109,-0.21484 -0.25391,-0.0781 -0.25391,-0.39063 0,-0.8789 0.37109,-1.17187 0.39063,-0.3125 0.42969,-0.46875 l 0.27344,-1.01563 q 0.0781,-0.0586 0.19531,-0.39062 l 0.44922,-0.82032 q 0.0781,-0.13671 0.35156,-0.68359 z m 4.1211,-1.17187 -0.23438,0.11718 q -0.0781,0.0391 -0.46875,0.35157 -0.37109,0.29296 -0.74219,0.48828 -0.35156,0.17578 -0.74218,0.95703 -0.3711,0.78125 -0.3711,0.89844 0,0.11718 0.11719,0.11718 l 0.66406,-0.29297 q 0.3711,-0.17578 0.6836,-0.44921 0.33203,-0.27344 0.9375,-0.66407 l 0.15625,-0.15625 q 0.0391,-0.0781 0.35156,-0.27343 0.33203,-0.21485 0.48828,-0.41016 l 0.19531,-0.0781 q 0.33203,-0.52734 0.66407,-0.64453 0.35156,-0.11718 0.35156,-0.23437 0,-0.23438 -0.3711,-0.23438 -0.15625,0 -0.46875,0.19532 h -0.44921 q -0.0781,0 -0.42969,0.23437 z"
         style="font-style:normal;font-variant:normal;font-weight:normal;font-stretch:normal;font-family:'Rage Italic';-inkscape-font-specification:'Rage Italic, ';fill:#ffffff;fill-opacity:1"
         id="path4523" />
      <path
         d="m 261.19727,348.07258 0.27343,-0.0781 0.19532,-0.19532 h 0.0391 l 0.17578,0.0781 h 0.0391 q 0.46875,0 0.82031,-0.17578 0.3711,-0.19532 0.60547,-0.27344 0.25391,-0.0781 0.3125,-0.11719 0.0586,-0.0391 0.0977,-0.0391 l 0.3125,0.0391 q 0.15625,0 0.41016,-0.54687 0.27343,-0.56641 0.60546,-0.82032 0.33204,-0.2539 0.66407,-0.95703 0.0781,-0.0977 0.17578,-0.29297 0.0976,-0.21484 0.15625,-0.21484 0.29297,0 0.46875,-0.37109 0.58594,-0.6836 0.95703,-0.6836 0.48828,0 0.68359,0.9375 l 0.19532,0.74219 q 0,0.0195 -0.0977,0.29297 -0.0977,0.25391 -0.0977,0.52734 0.0195,0.25391 -0.0195,0.35157 -0.0195,0.0781 -0.0195,0.19531 0,0.15625 0.33203,0.15625 0.11719,0 0.42969,-0.15625 l 0.11719,-0.0391 q 0.19531,0.11718 0.33203,0.11718 0.0391,0 0.54687,-0.19531 0.52735,-0.19531 0.66407,-0.21484 0.13671,-0.0195 0.46875,-0.15625 h 0.23437 l 0.15625,0.0586 q 0.0781,0 0.3125,-0.15625 0.25391,-0.17578 0.9375,-0.21484 l 0.27344,-0.11719 h 0.0781 q 0.64453,0 0.64453,0.56641 0,0.11718 -0.19531,0.41015 -0.17578,0.29297 -0.29297,0.66406 l -0.89843,1.13282 q -0.44922,0.58593 -0.89844,0.58593 -0.0781,0 -0.48828,-0.52734 0,-0.0391 -0.0781,-0.0391 -0.19531,0 -0.41015,0.0781 -0.21485,0.0781 -0.35157,0.0781 -0.0586,0 -1.03515,0.29297 l -0.46875,0.0781 q -0.0781,0 -0.3711,0.0781 l -0.99609,0.19531 q -0.50781,0.25391 -0.80078,0.95703 0,0.0391 -0.19531,0.17578 l -0.87891,1.60156 q -0.42969,0.11719 -0.56641,0.50782 l -0.0781,0.11718 q -0.21485,0.0391 -0.39063,0.25391 -0.17578,0.19531 -0.33203,0.3125 l -0.35156,0.52734 q -0.21484,0.27344 -0.42969,0.60547 -0.21484,0.3125 -0.3125,0.6836 -0.0976,0.35156 -0.15625,0.41015 -0.0586,0.0586 -0.0586,0.21485 l -0.0586,0.15625 q -0.23437,0.23437 -0.23437,0.52734 l 0.0781,0.3125 q -0.27343,0.9375 -0.27343,0.99609 0,0.0391 0.0391,0.21485 v 0.11719 q 0,0.42968 -0.3125,1.07421 l 0.0391,0.3125 -0.11719,0.87891 q 0,0.17578 0.11719,0.64453 -0.0781,0.0781 -0.0781,0.11719 0,0.54687 0.5664,1.21094 0.58594,0.64453 0.58594,2.03125 0,0.11718 -0.0586,0.35156 -0.0586,0.21484 -0.0781,0.48828 -0.0195,0.25391 -0.3125,0.50781 -0.27344,0.25391 -0.46875,0.25391 -1.03515,0 -1.54297,-1.50391 -0.50781,-1.5039 -0.50781,-1.93359 l 0.0391,-0.76172 -0.11718,-0.39062 0.11718,-1.71875 -0.0781,-0.41016 0.44922,-1.67969 v -0.60547 q 0,-0.0391 0.27343,-0.3125 0,-0.0391 -0.0781,-0.0391 -0.11719,0 -0.3125,0.23438 -0.19531,0.23437 -0.48828,0.44921 l -0.15625,0.27344 q -0.0391,-0.0391 -0.15625,-0.0781 -0.0977,0.0391 -0.64453,0.91797 -0.41016,0.0586 -0.64453,0.46875 -0.23438,0.41015 -0.64454,0.41015 l -0.0781,0.0391 q -0.0781,0.56641 -0.54688,0.56641 l -0.0781,0.0391 q -0.29297,0.66407 -0.60547,0.64453 -0.19531,0.58594 -0.95703,0.80079 -0.11719,0.23437 -0.33203,0.35156 -0.23438,0.11719 -0.33203,0.21484 -0.0977,0.0977 -0.17578,0.0977 -0.25391,0 -0.25391,-0.54688 0,-0.15625 0.13672,-0.33203 0.11719,-0.19531 0.11719,-0.27344 0,-0.0391 -0.19532,-0.23437 0,-0.60547 0.3125,-0.76172 0.3125,-0.15625 0.46875,-0.44922 0.0977,-0.23437 0.39063,-0.33203 0.29297,-0.0977 0.29297,-0.25391 0,-0.13671 0.50781,-0.54687 0.50781,-0.41016 0.74219,-0.70313 0.23437,-0.3125 0.39062,-0.3125 l 0.0781,-0.0781 q 0.0391,-0.48828 0.37109,-0.48828 l 0.19531,-0.11719 0.0391,-0.15625 0.11718,-0.0781 h 0.15625 l 0.0977,-0.0781 q 0.0391,-0.48828 0.44922,-0.76172 0.42969,-0.27344 1.54297,-1.52344 1.11328,-1.26953 1.25,-1.62109 0.13672,-0.35156 0.48828,-0.9375 0.37109,-0.60547 0.41015,-1.13281 -0.0391,-0.0781 -0.11718,-0.15625 l -0.83985,0.41015 q 0,-0.0586 -0.39062,-0.17578 -0.29297,0.17578 -0.42969,0.35157 -0.13672,0.17578 -0.21484,0.17578 l -0.27344,-0.0391 -0.85938,0.0977 q -1.15234,0.0977 -1.73828,0.46875 l -0.80078,0.23438 h -0.17578 q -0.15625,0 -0.46875,0.19531 l -0.44922,-0.0391 q -0.625,0.33203 -0.91797,0.33203 -0.0391,0 -0.23437,-0.0391 l -1.99219,0.54688 q -0.23437,0.0781 -1.05469,0.80078 l -0.15625,0.0391 q -0.19531,0 -0.44922,-0.42968 -0.27343,-0.44922 -0.27343,-0.80079 0,-1.93359 3.32031,-2.24609 l 0.80078,-0.3125 h 0.0391 l 0.21485,0.0781 h 0.0781 q 0.11719,0 0.3711,-0.13672 0.2539,-0.15625 1.13281,-0.3711 l 0.80078,-0.21484 0.25391,0.0391 q 0.19531,0 0.42968,-0.15625 0.25391,-0.15625 0.74219,-0.21484 0.50781,-0.0781 0.70313,-0.15625 l 0.3125,-0.0781 q 0.0781,0 0.3125,-0.13672 0.2539,-0.13671 0.64453,-0.13671 0.0586,0 0.29297,0.0781 z"
         style="font-style:normal;font-variant:normal;font-weight:normal;font-stretch:normal;font-family:'Rage Italic';-inkscape-font-specification:'Rage Italic, ';fill:#ffffff;fill-opacity:1"
         id="path4525" />
      <path
         d="m 278.05273,363.95149 0.625,-0.11719 0.60547,-0.29297 q 0.66407,-0.3125 1.21094,-0.3125 0.11719,0 0.23438,0.11719 l 0.8789,-0.58594 q 0.56641,-0.29297 1.15235,-0.29297 0.0391,0 0.2539,-0.33203 0.23438,-0.35156 0.42969,-0.54687 l 0.42969,-0.60547 q 0.46875,-0.625 0.60547,-0.9961 v -0.19531 q 0,-0.0586 0.21484,-0.42969 0.23437,-0.37109 0.41016,-0.46875 0.17578,-0.0977 0.21484,-0.2539 v -0.21485 q 0,-0.0781 0.15625,-0.33203 0.15625,-0.2539 0.41016,-0.44922 0.27343,-0.21484 0.60546,-0.85937 l 0.23438,-0.27344 0.19531,-0.11719 q 0.0391,-0.0391 0.0391,-0.15625 0,-0.15625 -0.0391,-0.2539 0.21485,-0.19532 0.25391,-0.35157 l 0.15625,-0.52734 0.19531,-0.11719 v -0.35156 q 0,-0.11719 0.29297,-0.48828 0.3125,-0.39063 0.66406,-1.34766 l 0.60547,-1.17187 v -0.0781 q -0.35156,0.15625 -0.52734,0.27344 l -0.54688,0.29297 q -0.0391,0 -0.37109,0.29297 -0.3125,0.29297 -0.58594,0.3125 -0.48828,0.52734 -1.03516,0.625 -0.52734,0.0781 -0.74218,0.2539 l -0.23438,0.11719 q -0.0781,0 -0.23437,0.11719 -0.15625,0.11719 -0.23438,0.11719 -0.17578,0 -0.48828,-0.23438 h -0.0781 v 0.15625 q 0,0.3125 -0.17579,0.35156 -0.15625,0.0391 -0.33203,0.11719 -0.17578,0.0586 -0.2539,0.0586 -0.56641,0 -0.64453,-0.27344 -0.0781,-0.29297 -0.19532,-0.39063 -0.11718,-0.0977 -0.11718,-0.23437 0,-0.50781 0.48828,-1.03516 0.48828,-0.54687 0.82031,-0.58594 0.0391,0 0.33203,-0.13671 h 0.0781 l 0.37109,0.0976 q 0.42969,0.0977 0.50781,0.21485 0.0781,0.0976 0.19531,0.0976 l 0.33204,-0.0391 0.27343,0.0391 q 0.0781,0 0.3125,-0.29297 0.25391,-0.3125 0.64453,-0.35156 0.91797,-0.29297 1.91407,-0.91797 0.0781,-0.19531 0.33203,-0.27344 l 0.23437,-0.29296 q 0,-0.0781 0.42969,-0.19532 0.44922,-0.13672 0.78125,-0.70312 0.35156,-0.58594 0.35156,-0.66406 0,-0.0391 -0.0391,-0.15625 0.0391,-0.0781 0.15625,-0.11719 0.23438,-0.80078 0.41016,-0.89844 0.17578,-0.11719 0.78125,-0.74219 v -0.0781 l -0.0781,-0.19531 v -0.0781 q 0,-0.87891 0.80078,-1.32812 0.17578,-1.03516 0.60547,-1.19141 l 0.23438,-0.11719 -0.0781,-0.60547 q 0,-0.15625 0.41016,-0.23437 l 0.11719,-0.0586 0.72265,-1.26953 q 0.21485,-0.41015 0.54688,-0.41015 0.0391,0 0.0977,0.0586 h 0.0781 q 0.15625,0 0.15625,-0.17578 0,-0.0391 -0.0391,-0.11719 v -0.11719 q 0,-0.42968 0.68359,-0.97656 0.70312,-0.54687 1.64062,-0.54687 0.19532,0 0.74219,0.48828 0.56641,0.46875 0.56641,1.44531 l -0.23438,0.74219 q 0.11719,0.44922 0.11719,0.48828 0,0.15625 -0.3125,0.23437 -0.0391,0.0391 -0.0391,0.25391 0,0.19531 -0.0977,0.39063 -0.0781,0.19531 -0.15625,0.60546 -0.0391,0 -0.11719,0.0781 l -0.35156,0.11719 q -0.0586,0.50781 -0.11719,0.52734 h -0.0976 l -0.21485,0.0781 q -0.2539,0.0781 -0.2539,0.23437 0,0.0391 0.0391,0.23438 0.0391,0.0391 0.0391,0.11718 0,0.46875 -0.95703,0.64453 0.0195,0.3125 -0.29297,0.54688 -0.3125,0.21484 -0.39062,0.37109 l -0.9375,0.9375 q -0.42969,0.42969 -1.66016,1.11328 -0.0781,0.13672 -0.17578,0.50782 -0.0977,0.37109 -0.23437,0.52734 l -0.70313,1.64063 v 0.15625 q 0,0.19531 -0.25391,0.37109 v 0.27344 q 0,0.0781 -0.23437,0.48828 l -0.64453,1.58203 q -0.23438,0.48828 -0.42969,0.80078 -0.17578,0.29297 -0.27344,0.625 -0.0977,0.3125 -0.29297,0.56641 -0.19531,0.2539 -0.27343,0.50781 -0.0781,0.23437 -0.6836,0.35156 0.0391,0.0781 0.17578,0.15625 0.13672,0.0781 0.13672,0.15625 -0.0781,0.13672 -0.11718,0.21485 -0.0391,0.0781 -0.0977,0.3125 -0.0391,0.21484 -0.11719,0.35156 -0.0781,0.11719 -0.17578,0.23437 -0.0977,0.11719 -0.17578,0.25391 -0.0781,0.11719 -0.19531,0.19531 l -0.15625,0.41016 -0.19532,0.15625 q -0.0391,0 -0.0391,0.11719 0,0.0391 0.0391,0.11718 -0.2539,0.56641 -0.44921,0.76172 -0.0391,0.0391 -0.0391,0.48828 0.33203,0 0.48828,0.0781 0.46875,-0.21485 0.50782,-0.21485 0.11718,0 0.27343,0.0781 0.17579,0.0586 0.21485,0.0586 l 0.3125,-0.13672 0.44922,0.13672 0.23437,-0.0391 0.52735,0.0391 0.3125,-0.0977 0.33203,0.0586 0.3125,-0.0977 h 0.15625 q 0.11718,0 0.8789,0.13672 h 0.0391 q 0.0781,0 0.37109,-0.17578 h 0.0391 q 0.0781,0 0.29297,0.0781 0.21484,0.0586 0.33203,0.0586 l 0.48828,-0.0586 0.91797,0.17578 0.23438,-0.0781 q 0.0391,0 0.0977,0.0391 1.03516,0.13671 2.30469,0.50781 l 0.60547,0.11719 q 0.0391,0.0391 0.19531,0.0391 0.19531,0 0.48828,-0.15625 0.9961,0.21484 1.3086,0.48828 0.0391,0.0391 0.23437,0.13672 0.21485,0.0976 0.33203,0.21484 0.11719,0.11719 0.48828,0.39063 0.39063,0.2539 0.39063,0.60547 0,1.07421 -0.29297,1.5625 -0.29297,0.48828 -0.58594,0.48828 -0.72265,0 -1.83593,-0.72266 -0.15625,-0.23437 -0.39063,-0.37109 -0.21484,-0.15625 -0.25391,-0.42969 l -0.0781,-0.0781 h -0.56641 q -0.0781,0 -0.23437,-0.11718 l -0.39063,-0.0781 q -0.41015,-0.21484 -0.48828,-0.29297 -0.0781,-0.0781 -0.27344,-0.0977 -0.17578,-0.0195 -0.33203,-0.13672 -0.3125,-0.0195 -0.625,-0.19531 h -0.41015 l -0.11719,-0.0781 q -0.0781,-0.25391 -0.27344,-0.25391 h -0.17578 l -0.15625,-0.0391 h -0.35156 l -0.29297,-0.19531 h -0.0781 l -0.27343,0.11719 -0.41016,-0.15625 -0.27344,0.11718 q -0.68359,0 -0.91797,-0.11718 l -0.3125,0.0391 q -0.21484,-0.15625 -0.2539,-0.15625 l -1.03516,0.15625 -0.42969,-0.0391 -0.41015,0.0391 -0.15625,-0.11719 q -0.0195,0.0586 -0.27344,0.19531 -0.23437,0.11719 -0.95703,0.25391 l -0.64453,0.11719 -0.3711,-0.0391 -0.23437,0.0781 q -0.33203,0.66406 -0.72266,0.83984 -0.0781,0 -0.11718,0.23438 -0.0391,0.23437 -0.27344,0.41016 -0.21485,0.15625 -0.33203,0.29296 -0.11719,0.13672 -0.25391,0.19532 -0.13672,0.0586 -0.37109,0.5664 -0.21485,0.48828 -0.72266,0.48828 l -0.29297,-0.0781 q 0.0391,0.0781 0.11719,0.17578 0.0781,0.0781 0.0781,0.15625 0,0.35156 -0.50781,0.35156 -0.0391,0 -0.29297,0.19532 -0.23437,0.17578 -0.625,0.29296 l -0.15625,0.15625 q -0.0977,0.0781 -0.37109,0.0781 l -1.15234,0.44922 h -0.0391 l -0.29297,-0.0586 q -0.0391,0 -0.15625,0.0586 h -0.39062 q -0.13672,0 -0.41016,-0.17578 l -0.27343,0.17578 q -0.0391,-0.0586 -0.44922,-0.17578 -0.50782,0 -0.6836,-0.15625 -0.15625,-0.15625 -0.23437,-0.15625 l -0.19531,-0.0781 q -0.19532,-0.0781 -0.46875,-0.0976 -0.25391,-0.0195 -0.72266,-0.64454 -0.48828,-0.625 -0.48828,-0.9375 0,-0.19531 0.15625,-0.37109 0.15625,-0.17578 0.50781,-0.33203 0.35156,-0.15625 0.76172,-0.35156 z m 18.4375,-20.23438 0.56641,-0.37109 q 0.15625,-0.0977 0.72266,-1.13281 0.58593,-1.03516 0.58593,-1.6211 0,-0.15625 -0.0391,-0.3125 -0.5664,0.23438 -0.66406,0.41016 -0.0977,0.17578 -0.80078,1.05469 -0.70313,0.8789 -0.72266,1.11328 -0.0195,0.21484 -0.3125,0.78125 -0.29297,0.54687 -0.3125,0.66406 -0.0195,0.0977 -0.19531,0.37109 -0.15625,0.27344 -0.15625,0.35157 0,0.0781 0.0781,0.0781 0.91797,-0.82031 1.05469,-1.07422 0.13672,-0.27344 0.19531,-0.3125 z m -18.73046,21.34766 -0.72266,0.33203 q -0.23438,0.0781 -0.23438,0.19531 0.0391,0.0391 0.0781,0.11719 0.33203,0.0781 0.54687,0.23437 0.21485,0.13672 0.46875,0.13672 l 0.54688,0.11719 0.52734,-0.0391 0.15625,0.0781 q 0.0781,-0.0391 0.48828,-0.33203 0,-0.0391 0.0391,-0.0391 l 0.46875,0.0391 q 0.11718,-0.0781 0.29297,-0.21484 0.17578,-0.15625 0.46875,-0.25391 0.19531,-0.33203 0.60546,-0.64453 0.0781,-0.23437 0.15625,-0.35156 l 0.11719,-0.41016 q -0.91797,0.0781 -1.07422,0.11719 l -1.44531,0.44922 q -1.32812,0.41015 -1.48437,0.46875 z"
         style="font-style:normal;font-variant:normal;font-weight:normal;font-stretch:normal;font-family:'Rage Italic';-inkscape-font-specification:'Rage Italic, ';fill:#ffffff;fill-opacity:1"
         id="path4527" />
      <path
         d="m 312.19336,363.67805 -0.91797,0.80078 q -0.0781,-0.0781 -0.15625,-0.0781 -0.19531,0 -0.48828,0.35156 -0.27344,0.35156 -0.39063,0.35156 l -0.19531,-0.0391 q -0.48828,0.37109 -0.70312,0.42969 -0.21485,0.0586 -0.52735,0.21484 -0.29297,0.15625 -0.54687,0.17578 -0.23438,0.0195 -0.39063,0.17578 -0.15625,0.13672 -0.76172,0.13672 l -0.3125,-0.0391 q -0.2539,0.11719 -0.33203,0.11719 -0.15625,0 -0.33203,-0.15625 -0.17578,-0.17579 -0.39062,-0.19532 -0.19532,-0.0195 -0.41016,-0.27343 -0.21484,-0.25391 -0.41016,-0.35157 -0.17578,-0.0977 -0.29296,-0.27343 l -0.27344,-0.23438 q -0.33203,-0.23437 -0.64453,-0.85937 -0.3125,-0.625 -0.3125,-0.97657 v -0.0781 l 0.0391,-0.3711 -0.0391,-0.42968 q 0.0781,-0.0781 0.19531,-0.33203 v -0.625 l 0.46875,-1.5625 q 0.0391,-0.0977 -0.15625,-0.25391 -0.19531,0.29297 -0.39063,0.35156 -0.19531,0.0586 -0.27343,0.27344 -0.0586,0.21484 -0.21485,0.21484 l -0.23437,-0.0781 q -0.0391,0.0391 -0.17578,0.41015 -0.13672,0.35157 -0.46875,0.35157 -0.35157,0 -0.35157,-0.27344 l 0.0391,-0.35156 -0.11719,-0.48828 q 0,-0.15625 0.3125,-0.60547 0.3125,-0.46875 0.56641,-0.52735 0.27343,-0.0781 0.44921,-0.37109 0.19532,-0.3125 0.82032,-0.74219 0.35156,-0.0781 0.60547,-0.50781 0.27343,-0.21484 0.70312,-0.35156 0.44922,-0.13672 0.66406,-0.39063 0.23438,-0.27344 1.32813,-0.82031 1.11328,-0.56641 1.62109,-0.56641 0.15625,0 0.42969,-0.0781 0.27344,-0.0977 0.50781,-0.15625 0.23438,-0.0781 0.48828,-0.21485 0.25391,-0.15625 0.41016,-0.15625 l 0.56641,0.19532 q 0.625,0.17578 0.76171,0.2539 0.0391,0.0391 0.39063,0.17578 0.37109,0.11719 0.74219,0.33204 0.39062,0.21484 0.39062,0.80078 -0.33203,0.48828 -0.33203,0.52734 0,0.0781 0.44922,0.23438 0.15625,0.29296 0.46875,0.76171 l 0.21484,0.6836 0.0391,1.60156 -0.0391,0.15625 q -0.21484,0.19531 -0.21484,0.25391 l 0.0586,0.39062 -0.15625,0.54688 q -0.0586,0.2539 -0.19531,0.33203 -0.13672,0.0781 -0.17578,0.19531 l -0.11719,0.15625 q -0.0391,0.0586 -0.17578,0.35156 -0.11719,0.27344 -0.27344,0.42969 -0.15625,0.15625 -0.19531,0.37109 -0.0391,0.21485 -0.19531,0.3125 -0.15625,0.0977 -0.23438,0.21485 -0.0586,0.0976 -0.21484,0.17578 z m -6.07422,0.50781 0.0781,0.44922 0.0391,0.0391 h 0.3125 l 0.0976,0.0391 q 0.39063,0.0781 0.58594,0.0781 0.60547,0 0.95703,-0.29297 0.3711,-0.3125 0.58594,-0.3125 0.21484,0 0.35156,-0.29297 0.15625,-0.29297 0.19532,-0.29297 h 0.27343 l 0.0781,-0.0391 q 0,-0.44922 0.39062,-0.64453 0.41016,-0.19531 0.56641,-0.50781 0.17578,-0.33203 0.39062,-0.48828 0.21485,-0.17578 0.29297,-0.44922 l 0.15625,-0.23438 q 0.0781,-0.0781 0.0781,-0.29297 l 0.37109,-0.70312 q 0.11719,-0.48828 0.11719,-0.76172 0,-0.41016 -0.42969,-0.64453 -0.41015,-0.23438 -0.41015,-0.91797 0,-0.44922 0.44921,-0.82031 0.46875,-0.39063 0.46875,-0.46875 0,-0.11719 -0.11718,-0.11719 -0.0586,0 -0.44922,0.15625 -0.13672,0.27344 -1.38672,0.72266 -0.41016,-0.19532 -0.44922,-0.19532 -0.11719,0 -0.23437,0.23438 -0.11719,0.23437 -0.23438,0.33203 h -0.25391 q -0.0391,0 -0.2539,0.25391 -0.21485,0.2539 -0.54688,0.2539 l -0.23437,0.23438 q 0.0195,0.3125 -0.39063,0.64453 l -0.21484,0.25391 q -0.19531,0.23437 -0.50781,0.54687 l -0.35157,0.87891 q -0.21484,0.50781 -0.21484,0.76172 -0.0586,0.11718 -0.27344,0.2539 -0.19531,0.11719 -0.19531,0.3125 0,0.0391 0.13672,0.19531 0.13672,0.15625 0.13672,0.23438 l -0.0781,0.25391 -0.0781,0.72265 z"
         style="font-style:normal;font-variant:normal;font-weight:normal;font-stretch:normal;font-family:'Rage Italic';-inkscape-font-specification:'Rage Italic, ';fill:#ffffff;fill-opacity:1"
         id="path4529" />
      <path
         d="m 315.5332,377.54524 -0.3125,0.21484 q -0.19531,0.11719 -0.41015,0.11719 -0.48828,0 -0.9375,-0.64453 -0.46875,-0.64453 -0.46875,-1.32813 0,-1.23047 0.2539,-1.75781 0.23438,-0.50781 0.27344,-0.76172 0,-0.0195 0.42969,-0.97656 0.41015,-0.9375 0.78125,-1.42578 0.37109,-0.48828 0.625,-0.91797 l 0.0781,-0.15625 q 0.29297,-0.46875 0.56641,-0.64453 0,-0.11719 0.74219,-0.82032 0.76172,-0.68359 1.42578,-1.17187 l 0.19531,-0.27344 q 0.46875,-0.29297 0.54688,-0.29297 l 1.13281,-0.3125 q 0.15625,-0.15625 0.76172,-0.60547 h 0.15625 l 0.52734,-0.15625 q 0.42969,-0.19531 1.32813,-0.35156 0.91796,-0.17578 1.03515,-0.39062 0.13672,-0.23438 0.21485,-0.42969 0.0976,-0.19531 0.44921,-0.82031 0.0781,-0.33203 0.13672,-0.52735 0.0586,-0.19531 0.11719,-0.23437 0.0781,-0.0391 0.23438,-0.3711 0.15625,-0.35156 0.3125,-0.58593 0.0391,0 0.0391,-0.0391 l -0.11719,-0.33203 q 0.15625,-0.46875 0.3125,-0.5664 0.17578,-0.11719 0.17578,-0.15625 l -0.13672,-0.35157 0.33203,-0.72265 q 0,-0.0781 -0.0781,-0.0781 -1.03516,0.72266 -1.21094,0.72266 -0.0976,0.13672 -0.42969,0.46875 -0.33203,0.11719 -0.44921,0.41016 l -0.15625,0.0391 -0.11719,0.19531 q 0,0.0391 -0.13672,0.0977 -0.13672,0.0586 -0.54688,0.3125 l -0.23437,-0.0391 q -0.0781,0 -0.19531,0.39063 -0.33203,0.39062 -0.64453,0.48828 -0.29297,0.0781 -0.3711,0.19531 l -0.15625,0.19532 -0.19531,-0.0391 q -0.41016,0 -0.41016,0.3125 0,0.17578 -0.23437,0.41016 -0.15625,0 -0.39063,0.11719 h -0.29297 q -0.19531,0.42968 -0.70312,0.52734 l -0.56641,0.39063 -0.33203,0.11718 q -0.23437,0.11719 -0.46875,0.29297 -0.23437,0.15625 -0.80078,0.19531 -0.27344,-0.15625 -0.83984,-0.29296 -0.56641,-0.15625 -0.80078,-1.91407 h -0.0391 q -0.15625,0 -0.33203,0.11719 -0.19531,0.11719 -0.27344,0.11719 -0.46875,0 -0.46875,-0.39063 0,-0.8789 0.66407,-1.15234 l 0.48828,-0.60547 1.25,-1.23047 q 1.30859,-1.30859 1.75781,-1.67969 0.44922,-0.37109 0.97656,-0.72265 l 0.9961,-0.66406 q 0.50781,-0.33204 0.625,-0.35157 0.11718,-0.0391 0.23437,-0.13672 0.13672,-0.0976 0.72266,-0.29296 l 0.35156,-0.15625 q 1.09375,-0.3711 1.40625,-0.3711 l 0.27344,0.0391 q 0.21484,0 0.41015,-0.15625 0.27344,0 0.83985,-0.42968 l 0.70312,-0.19532 q 0.29297,-0.0976 0.48828,-0.0976 h 0.3711 q 0.41015,0 0.52734,0.64453 0.13672,0.64453 0.23438,0.64453 0.0391,0 0.23437,-0.29297 l 0.27344,-0.19531 q 0.29297,-0.19531 0.37109,-0.19531 0.46875,0 0.58594,0.39062 v 0.0391 l 0.0781,0.0977 q 0.17578,0.9375 0.17578,1.15234 0,0.9375 -0.41016,1.46485 -0.39062,0.52734 -0.46875,0.74219 -0.39062,1.58203 -0.78125,2.38281 -0.0977,0.21484 -0.46875,1.13281 l -0.19531,0.19531 q -0.0781,0.0391 -0.0781,0.11719 l 0.0391,0.27344 q -0.33204,0.52734 -0.33204,0.83984 0,0.17578 -0.3125,0.72266 0.0391,0.0391 0.33204,0.21484 0.3125,0.15625 0.68359,0.625 0.39062,0.44922 0.39062,0.6836 0,0.0586 -0.21484,0.76171 -0.70312,0.52735 -1.19141,0.52735 -0.19531,0 -0.5664,-0.25391 l -0.11719,0.0391 v -0.0781 q -0.25391,-0.0586 -0.41016,-0.15625 -0.13671,-0.0781 -0.27343,-0.0781 -0.15625,0 -0.15625,0.15625 0,0.0781 0.0391,0.15625 -0.11719,0.0977 -0.3125,0.29297 0,0.0586 -0.27344,0.56641 -0.27344,0.52734 -0.48828,0.70312 -0.42969,0.0195 -0.58594,0.64454 -0.15625,0.625 -0.37109,0.80078 l -0.19531,-0.0781 q -0.66407,1.32813 -1.32813,1.91406 -0.41015,0.0977 -0.42969,0.13672 0,0.0586 -0.0391,0.25391 -0.0195,0.21484 -0.46875,0.64453 -0.42969,0.44922 -0.50781,0.44922 l -0.19531,0.0391 -0.11719,0.11719 q 0.0195,0.39062 -1.03516,1.25 -0.5664,0.3125 -0.60547,0.42969 -0.15625,0.37109 -1.15234,0.8789 l -0.37109,0.33203 q -0.25391,0.23438 -0.50782,0.33204 z m 6.71875,-16.26953 0.23438,-0.33204 q 0.11719,-0.15625 0.39062,-0.23437 0.29297,-0.0781 0.46875,-0.33203 0.46875,-0.66406 1.11328,-0.97656 l 0.19532,-0.13672 q 0.29297,-0.56641 0.52734,-0.60547 0.23438,-0.0586 0.41016,-0.35156 0.17578,-0.3125 0.17578,-0.50782 0,-0.0781 -0.11719,-0.0781 -0.27344,0 -0.48828,0.15625 -0.19531,0.15625 -0.27344,0.15625 l -0.39062,-0.0391 q -0.35157,0.19531 -0.97657,0.46875 l -0.35156,0.29296 q -0.23437,0.15625 -0.42969,0.19532 -0.17578,0.0391 -0.27343,0.2539 -0.0977,0.19532 -0.25391,0.19532 l -0.15625,0.0781 q -0.0781,0.0781 -0.44922,0.0781 -0.19531,0.11718 -0.41015,0.33203 -0.19532,0.21484 -0.23438,0.21484 -0.44922,0.48828 -0.78125,0.60547 -0.3125,0.11719 -0.41016,0.33203 -0.37109,0.0977 -0.625,0.44922 -0.2539,0.33203 -0.46875,0.46875 -0.19531,0.11719 -0.35156,0.3125 l -0.19531,0.15625 q -0.11719,0.0781 -0.33203,0.52734 -0.19531,0.42969 -0.19531,0.60547 0,0.11719 0.13671,0.11719 0.19532,0 0.72266,-0.27344 0.54688,-0.29297 0.70313,-0.44922 0.15625,-0.15625 0.21484,-0.15625 l 0.74219,0.0391 q 0.11718,-0.25391 0.39062,-0.33204 0.29297,-0.0781 0.44922,-0.33203 0.15625,-0.2539 0.87891,-0.54687 l 0.21484,-0.35156 z m 0.35157,6.23046 -0.58594,0.0781 q -0.21485,-0.15625 -0.33203,-0.15625 -0.0781,0 -0.11719,0.11719 -0.23438,0.3125 -1.03516,0.52734 -0.80078,0.21484 -1.09375,0.42969 -0.27343,0.23437 -0.46875,0.2539 -0.19531,0.0195 -0.19531,0.0781 -0.19531,0.15625 -0.29297,0.27344 -0.19531,0.0781 -0.39062,0.23437 -0.19532,0.17578 -0.41016,0.21485 -0.35156,0.76171 -0.50781,0.76171 -0.0391,0 -0.19531,-0.0391 h -0.0391 q -0.2539,0.50781 -0.39062,0.58594 -0.13672,0.0781 -0.23438,0.21484 -0.0977,0.15625 -0.37109,0.33203 -0.29297,0.17579 -0.39063,0.58594 -0.0976,0.42969 -0.23437,0.56641 -0.15625,0.15625 -0.19531,0.66406 l -0.11719,0.27344 q -0.0586,0.11719 -0.15625,0.66406 -0.11719,0.56641 -0.11719,0.58594 0,0.27344 0.23438,0.48828 0.0781,-0.0977 0.33203,-0.13672 l 1.15234,-0.46875 q 0.0586,-0.0391 0.42969,-0.37109 0.37109,-0.3125 0.64453,-0.41016 0.29297,-0.0977 0.52734,-0.35156 0.15625,-0.23438 0.3711,-0.39063 0.23437,-0.15625 0.27344,-0.39062 0.44921,-0.39063 0.82031,-0.74219 0.37109,-0.33203 0.46875,-0.56641 0.11719,-0.21484 0.35156,-0.37109 l 0.0781,-0.25391 q 0.0391,-0.0195 0.15625,-0.0586 0.13671,-0.0195 0.42968,-0.625 l 0.52735,-0.87891 q 0.46875,-0.46875 0.76172,-1.1914 l 0.27343,-0.23438 q 0.0781,-0.0391 0.0781,-0.17578 z"
         style="font-style:normal;font-variant:normal;font-weight:normal;font-stretch:normal;font-family:'Rage Italic';-inkscape-font-specification:'Rage Italic, ';fill:#ffffff;fill-opacity:1"
         id="path4531" />
      <path
         d="m 341.17773,363.67805 -0.91796,0.80078 q -0.0781,-0.0781 -0.15625,-0.0781 -0.19532,0 -0.48829,0.35156 -0.27343,0.35156 -0.39062,0.35156 l -0.19531,-0.0391 q -0.48828,0.37109 -0.70313,0.42969 -0.21484,0.0586 -0.52734,0.21484 -0.29297,0.15625 -0.54688,0.17578 -0.23437,0.0195 -0.39062,0.17578 -0.15625,0.13672 -0.76172,0.13672 l -0.3125,-0.0391 q -0.25391,0.11719 -0.33203,0.11719 -0.15625,0 -0.33203,-0.15625 -0.17578,-0.17579 -0.39063,-0.19532 -0.19531,-0.0195 -0.41015,-0.27343 -0.21485,-0.25391 -0.41016,-0.35157 -0.17578,-0.0977 -0.29297,-0.27343 l -0.27344,-0.23438 q -0.33203,-0.23437 -0.64453,-0.85937 -0.3125,-0.625 -0.3125,-0.97657 v -0.0781 l 0.0391,-0.3711 -0.0391,-0.42968 q 0.0781,-0.0781 0.19531,-0.33203 v -0.625 l 0.46875,-1.5625 q 0.0391,-0.0977 -0.15625,-0.25391 -0.19531,0.29297 -0.39062,0.35156 -0.19531,0.0586 -0.27344,0.27344 -0.0586,0.21484 -0.21484,0.21484 l -0.23438,-0.0781 q -0.0391,0.0391 -0.17578,0.41015 -0.13672,0.35157 -0.46875,0.35157 -0.35156,0 -0.35156,-0.27344 l 0.0391,-0.35156 -0.11719,-0.48828 q 0,-0.15625 0.3125,-0.60547 0.3125,-0.46875 0.56641,-0.52735 0.27344,-0.0781 0.44922,-0.37109 0.19531,-0.3125 0.82031,-0.74219 0.35156,-0.0781 0.60547,-0.50781 0.27344,-0.21484 0.70313,-0.35156 0.44921,-0.13672 0.66406,-0.39063 0.23437,-0.27344 1.32812,-0.82031 1.11328,-0.56641 1.6211,-0.56641 0.15625,0 0.42968,-0.0781 0.27344,-0.0977 0.50782,-0.15625 0.23437,-0.0781 0.48828,-0.21485 0.2539,-0.15625 0.41015,-0.15625 l 0.56641,0.19532 q 0.625,0.17578 0.76172,0.2539 0.0391,0.0391 0.39062,0.17578 0.3711,0.11719 0.74219,0.33204 0.39063,0.21484 0.39063,0.80078 -0.33203,0.48828 -0.33203,0.52734 0,0.0781 0.44921,0.23438 0.15625,0.29296 0.46875,0.76171 l 0.21485,0.6836 0.0391,1.60156 -0.0391,0.15625 q -0.21485,0.19531 -0.21485,0.25391 l 0.0586,0.39062 -0.15625,0.54688 q -0.0586,0.2539 -0.19531,0.33203 -0.13672,0.0781 -0.17579,0.19531 l -0.11718,0.15625 q -0.0391,0.0586 -0.17578,0.35156 -0.11719,0.27344 -0.27344,0.42969 -0.15625,0.15625 -0.19531,0.37109 -0.0391,0.21485 -0.19532,0.3125 -0.15625,0.0977 -0.23437,0.21485 -0.0586,0.0976 -0.21485,0.17578 z m -6.07421,0.50781 0.0781,0.44922 0.0391,0.0391 h 0.3125 l 0.0977,0.0391 q 0.39062,0.0781 0.58594,0.0781 0.60547,0 0.95703,-0.29297 0.37109,-0.3125 0.58594,-0.3125 0.21484,0 0.35156,-0.29297 0.15625,-0.29297 0.19531,-0.29297 h 0.27344 l 0.0781,-0.0391 q 0,-0.44922 0.39063,-0.64453 0.41015,-0.19531 0.5664,-0.50781 0.17579,-0.33203 0.39063,-0.48828 0.21484,-0.17578 0.29297,-0.44922 l 0.15625,-0.23438 q 0.0781,-0.0781 0.0781,-0.29297 l 0.3711,-0.70312 q 0.11718,-0.48828 0.11718,-0.76172 0,-0.41016 -0.42968,-0.64453 -0.41016,-0.23438 -0.41016,-0.91797 0,-0.44922 0.44922,-0.82031 0.46875,-0.39063 0.46875,-0.46875 0,-0.11719 -0.11719,-0.11719 -0.0586,0 -0.44922,0.15625 -0.13672,0.27344 -1.38672,0.72266 -0.41015,-0.19532 -0.44921,-0.19532 -0.11719,0 -0.23438,0.23438 -0.11719,0.23437 -0.23437,0.33203 h -0.25391 q -0.0391,0 -0.25391,0.25391 -0.21484,0.2539 -0.54687,0.2539 l -0.23438,0.23438 q 0.0195,0.3125 -0.39062,0.64453 l -0.21485,0.25391 q -0.19531,0.23437 -0.50781,0.54687 l -0.35156,0.87891 q -0.21484,0.50781 -0.21484,0.76172 -0.0586,0.11718 -0.27344,0.2539 -0.19531,0.11719 -0.19531,0.3125 0,0.0391 0.13671,0.19531 0.13672,0.15625 0.13672,0.23438 l -0.0781,0.25391 -0.0781,0.72265 z"
         style="font-style:normal;font-variant:normal;font-weight:normal;font-stretch:normal;font-family:'Rage Italic';-inkscape-font-specification:'Rage Italic, ';fill:#ffffff;fill-opacity:1"
         id="path4533" />
    </g>
  </g>
</svg>
